<?xml version="1.0" encoding="utf-8"?>
<!-- Generator: Adobe Illustrator 18.1.0, SVG Export Plug-In . SVG Version: 6.00 Build 0)  -->
<svg version="1.1" id="Layer_1" xmlns="http://www.w3.org/2000/svg" xmlns:xlink="http://www.w3.org/1999/xlink" x="0px" y="0px"
	 viewBox="0 0 255 240.9" style="enable-background:new 0 0 255 240.9;" xml:space="preserve">
<rect x="-11.8" y="-15.3" style="fill:#333333;" width="300" height="300"/>
<g>
	<path style="fill:none;stroke:#07FFE2;stroke-width:4;stroke-miterlimit:10;" d="M236.3,226.3c-10.8,1.6-20.7-6.1-22.4-17.9
		s6.9-20.2,15.5-21.5c9.7-1.4,21.1,4.2,23.2,18.1C254.7,219.8,248.6,224.5,236.3,226.3z"/>
	<g>
		<path style="fill:#07FFE2;" d="M76.2,4c21.8,0,34.5,26.6,34.5,50.4c0,26.6-13.2,55.2-38.7,55.2C44.8,109.6,38,91.1,38,57.2
			C38,27.5,54.5,4,76.2,4 M76.2,0C64.4,0,53.6,6.1,45.7,17.2C38.1,27.7,34,42,34,57.2c0,19.5,2.3,32.1,7.4,40.9
			c6,10.4,16.1,15.5,30.7,15.5c13.2,0,24.4-6.7,32.3-19.5c6.6-10.7,10.4-25.1,10.4-39.7c0-13-3.5-26.2-9.7-36.2
			C97.9,6.5,87.6,0,76.2,0L76.2,0z"/>
	</g>
	<g>
		<path style="fill:#07FFE2;" d="M71.8,33c4.6,0,12.1,5.5,12.1,24.9S73.4,80.8,69.6,80.8s-11.2-2.9-11.2-18.5
			C58.4,46.7,65.5,33,71.8,33 M71.8,29c-4.8,0-9.3,3.9-12.7,11c-3,6.4-4.7,14.2-4.7,22.2c0,7.8,1.7,13.8,5.2,17.7
			c3.8,4.3,8.3,4.7,10,4.7c6.3,0,18.3-5.6,18.3-26.9c0-9.4-1.7-16.8-5-21.9C80.1,31.6,76,29,71.8,29L71.8,29z"/>
	</g>
	<g>
		<path style="fill:#07FFE2;" d="M166.8,13.5c0,0,1,19.4,0.9,34.2c-0.2,14.7-1.9,45-1.7,50.6c0,0-2.3,0.4-5.1,0.4
			c-0.9,0-1.9,0-2.9-0.2c-1.3-0.1-3.3-0.2-5.3-0.2c-4.4,0-9.2,0.2-9.2,0.2s-0.4-27.6-0.4-33.9c0,0-4.5,0.1-7.7,0.8
			c-2.7,0.6-8.3,0.7-10,0.7c-0.3,0-0.5,0-0.5,0c0.5,18-2.1,36-2.1,36s-2.2,0.1-5.5,0.1c-5.2,0-12.9-0.3-18-2c0,0,2.6-11,3.9-25.6
			c1.3-14.6,7.3-48.7,7.6-55.7c0,0,0.1,0,0.2,0c1.4,0,9.9-0.2,16.9-1.7c0,0,0.6,7.2,0.5,13.1c-0.1,5.9-1.1,15.8-1.1,15.8l15-1.6
			c0,0-0.6-21.3-0.1-26.8c0,0,5-1.7,10-1.7c0,0,0,0,0.1,0c0,0,0,0,0.1,0C157.4,16,166.8,13.5,166.8,13.5 M170.5,8.4l-4.7,1.2
			c-2.5,0.6-9.8,2.3-13.5,2.3h-0.1c-5.6,0-11.1,1.9-11.3,1.9l-2.4,0.8l-0.2,2.6c-0.4,4.3-0.1,17.2,0,23.6l-6.4,0.7
			c0.3-3.4,0.6-7.9,0.7-11.3c0.1-6.1-0.5-13.3-0.5-13.6l-0.4-4.5l-4.5,1.1c-6.7,1.5-15.1,1.7-16.1,1.7h-0.2l-3.9-0.2l-0.2,3.8
			c-0.2,3.6-1.7,13.5-3.3,24.2c-1.7,11.2-3.6,23.9-4.3,31.5c-1.3,14.1-3.8,25.1-3.9,25.2l-0.8,3.5l3.4,1.2
			c5.5,1.8,13.5,2.2,19.2,2.2c3.3,0,5.6-0.1,5.7-0.1l3.3-0.2l0.5-3.2c0.1-0.7,2.3-15.9,2.2-32.6c2.5-0.1,5.4-0.3,7.3-0.7
			c0.8-0.2,1.8-0.3,2.8-0.4c0.1,9.7,0.4,28.7,0.4,29.7l0.1,4.1l4.1-0.2c0,0,4.8-0.2,9.1-0.2c2.8,0,4.2,0.1,4.9,0.2
			c1,0.1,2.2,0.2,3.3,0.2c3.2,0,5.7-0.5,5.8-0.5l3.4-0.6l-0.1-3.4c-0.1-2.6,0.3-11.3,0.7-20.5c0.4-10.4,0.9-22.3,1-30
			c0.2-14.7-0.9-34.2-0.9-34.4L170.5,8.4L170.5,8.4z"/>
	</g>
	<g>
		<path style="fill:#07FFE2;" d="M74.9,128.1c1.5,0,3,0,4.3,0.1c0,0-1.4,12.9-0.7,29.6s2.8,55.1,3.5,63.9c0,0-14.6,1.5-23,4.4
			c0,0-1.7-8.1-2.5-14.8c-0.8-6.7-1.1-18-1.1-18l-16.6,4c0,0,3.8,24,4,30.3l-27,8.2c0,0-4-21.8-5.9-38.4
			c-1.9-16.6-4.4-50.9-5.4-57.3c0,0,4.4-1.4,9-1.5s16.4-2.1,16.4-2.1s4.3,29.6,5.2,36.7l20.3-2.9c-3.2-20.2-2.9-40.8-2.9-40.8
			S65.5,128.1,74.9,128.1 M74.9,124L74.9,124c-9.5,0-22.3,1.4-22.8,1.5l-3.5,0.4l-0.1,3.6c0,0.8-0.2,18.6,2.4,37.5l-12.4,1.8
			c-1.4-10.4-4.5-31.7-4.7-32.8l-0.6-4.1l-4.1,0.7c-3.2,0.6-12.3,2-15.8,2.1c-5.1,0.1-9.9,1.6-10.1,1.6l-3.3,1l0.5,3.4
			c0.5,2.9,1.3,12.8,2.2,23.2c1,11.8,2.2,25.2,3.2,33.9c1.9,16.5,5.9,38.4,6,38.6l0.8,4.4l4.3-1.3l27-8.2l3-0.9l-0.1-3.1
			c-0.2-5-2.4-20-3.5-27l8.3-2c0.2,3.9,0.5,9.4,0.9,13.4c0.8,6.8,2.5,14.8,2.6,15.2l1,4.5l4.3-1.5c7.9-2.8,21.9-4.2,22-4.2l3.9-0.4
			l-0.3-3.9c-0.7-8.5-2.8-47.2-3.5-63.7c-0.6-16.1,0.7-28.9,0.7-29l0.4-4.1l-4.1-0.3C78.2,124.1,76.6,124,74.9,124L74.9,124z"/>
	</g>
	<g>
		<path style="fill:#07FFE2;" d="M175,115.5c0,0,5.6,17.3,7.7,26.4c2.1,9.2,6.5,23.6,6.5,23.6s3.2-14.4,4.8-21.2
			c1.6-6.8,6-20.9,6-20.9c2.5,0.6,19,2.4,19,2.4s-3.6,20-6.8,30.9s-7.6,27.6-10.2,39.3c-2.6,11.6-8,33.8-8,33.8
			c-0.1,0-0.3,0.1-0.5,0.1c-2.8,0-15-3.1-15-3.1s2.9-10.1,4.2-18.8s1.5-10.2,1.5-10.2s-11.1-27.9-16.4-39.5
			c-4.4-9.8-14.4-41.7-14.4-41.7L175,115.5 M177.8,111.4l-3.1,0.2l-21.6,1.2l-5.1,0.3l1.5,4.9c0.4,1.3,10.1,32.3,14.6,42.2
			c4.6,10.2,13.9,33.3,15.9,38.4c-0.2,1.3-0.6,3.9-1.3,9.1c-1.2,8.4-4,18.2-4,18.3l-1.1,4l4,1c3,0.8,12.9,3.2,16,3.2
			c0.8,0,1.4-0.1,2-0.4l1.9-0.8l0.5-2c0.1-0.2,5.5-22.4,8.1-33.9c2.6-11.7,7-28.4,10.1-39c3.2-11,6.7-30.5,6.8-31.3l0.8-4.2
			l-4.3-0.5c-6.7-0.7-16.9-2-18.5-2.4l-3.6-0.9l-1.1,3.6c-0.2,0.6-4.5,14.3-6.1,21.2c-0.4,1.6-0.8,3.7-1.3,5.9
			c-0.8-2.9-1.6-5.9-2.1-8.4c-2.1-9.2-7.6-26.1-7.8-26.8L177.8,111.4L177.8,111.4z"/>
	</g>
	<g>
		<path style="fill:#07FFE2;" d="M140.8,118.1c0,0,1.2,14.8-0.1,22.8h-29.2l1.4,20h31c0,0-0.6,12-1.5,17h-31.7
			c0,0,0.2,10.8,0.2,13.2c0,0.9,6.6,1.1,15.3,1.1c15.7,0,38.2-1,41.6-1.3c0,0-0.5,16.8,0,19.2c0.3,1.4-22.5,1.9-42.9,1.9
			c-15.7,0-30-0.4-31.1-1c0,0-5.8-78.3,0-90C107.3,118.6,140.8,118.1,140.8,118.1 M144.5,114.2l-3.7,0.1c-1.4,0-34,0.5-47.5,3.1
			l-1.9,0.4l-0.9,1.8c-1.8,3.5-4,12.7-2.6,51.3c0.7,20.9,2.2,40.5,2.2,40.7l0.2,2.1l1.8,1.1c1,0.6,2.6,1.5,33,1.5
			c10.7,0,20.9-0.2,28.6-0.4c4.3-0.2,7.8-0.4,10.3-0.6c4-0.4,5.9-0.8,7.1-2.3c0.8-1,1.1-2.2,0.9-3.4c-0.2-1.5-0.1-10.7,0.1-18.4
			l0.1-4.5l-4.5,0.4c-3.2,0.3-25.4,1.2-41.3,1.2c-6.1,0-9.5,0-11.4-0.1c0-1.9-0.1-4.1-0.1-6.1h27.6h3.4l0.6-3.5
			c0.9-5.1,1.5-16.6,1.5-17.1l0.2-4.4h-4.2h-27.3l-0.8-12h24.9h3.4l0.6-3.3c1.3-8.2,0.1-23.2,0.1-23.8L144.5,114.2L144.5,114.2z"/>
	</g>
</g>
</svg>
